<svg width="123" height="123" viewBox="0 0 123 123" fill="none" xmlns="http://www.w3.org/2000/svg">
<g filter="url(#filter0_d_1_2872)">
<rect x="30" y="12" width="63" height="63" rx="15.375" fill="white" shape-rendering="crispEdges"/>
<rect x="30.5125" y="12.5125" width="61.975" height="61.975" rx="14.8625" stroke="#E0E0E9" stroke-width="1.025" shape-rendering="crispEdges"/>
<path d="M69.9876 50.0846C69.6311 50.9082 69.2091 51.6664 68.7202 52.3634C68.0537 53.3137 67.508 53.9714 67.0874 54.3367C66.4355 54.9362 65.737 55.2433 64.989 55.2607C64.4521 55.2607 63.8045 55.1079 63.0507 54.798C62.2944 54.4895 61.5994 54.3367 60.9639 54.3367C60.2975 54.3367 59.5827 54.4895 58.8181 54.798C58.0524 55.1079 57.4355 55.2695 56.9639 55.2855C56.2466 55.316 55.5317 55.0003 54.818 54.3367C54.3626 53.9394 53.7928 53.2584 53.1104 52.2936C52.3781 51.2633 51.7761 50.0686 51.3044 48.7065C50.7993 47.2353 50.5461 45.8106 50.5461 44.4314C50.5461 42.8515 50.8875 41.4888 51.5713 40.347C52.1087 39.4297 52.8237 38.7062 53.7185 38.1751C54.6133 37.6439 55.5801 37.3732 56.6213 37.3559C57.191 37.3559 57.9381 37.5322 58.8666 37.8785C59.7924 38.226 60.3868 38.4022 60.6474 38.4022C60.8423 38.4022 61.5027 38.1962 62.6221 37.7854C63.6808 37.4044 64.5743 37.2466 65.3063 37.3088C67.2897 37.4689 68.7798 38.2507 69.7708 39.6594C67.9969 40.7342 67.1194 42.2396 67.1369 44.1708C67.1529 45.675 67.6986 46.9268 68.7711 47.9207C69.2571 48.382 69.7999 48.7385 70.4038 48.9917C70.2729 49.3715 70.1346 49.7353 69.9876 50.0846ZM65.4387 32.1841C65.4387 33.3632 65.0079 34.464 64.1494 35.4829C63.1133 36.6942 61.8601 37.3942 60.501 37.2838C60.4837 37.1423 60.4737 36.9934 60.4737 36.837C60.4737 35.7051 60.9664 34.4938 61.8414 33.5034C62.2783 33.002 62.8339 32.585 63.5076 32.2524C64.1799 31.9247 64.8159 31.7435 65.4139 31.7125C65.4314 31.8701 65.4387 32.0278 65.4387 32.1841V32.1841Z" fill="black"/>
</g>
<defs>
<filter id="filter0_d_1_2872" x="0" y="0" width="123" height="123" filterUnits="userSpaceOnUse" color-interpolation-filters="sRGB">
<feFlood flood-opacity="0" result="BackgroundImageFix"/>
<feColorMatrix in="SourceAlpha" type="matrix" values="0 0 0 0 0 0 0 0 0 0 0 0 0 0 0 0 0 0 127 0" result="hardAlpha"/>
<feOffset dy="18"/>
<feGaussianBlur stdDeviation="15"/>
<feComposite in2="hardAlpha" operator="out"/>
<feColorMatrix type="matrix" values="0 0 0 0 0.266667 0 0 0 0 0.380392 0 0 0 0 0.94902 0 0 0 0.11 0"/>
<feBlend mode="normal" in2="BackgroundImageFix" result="effect1_dropShadow_1_2872"/>
<feBlend mode="normal" in="SourceGraphic" in2="effect1_dropShadow_1_2872" result="shape"/>
</filter>
</defs>
</svg>
