<svg width="409" height="436" viewBox="0 0 409 436" fill="none" xmlns="http://www.w3.org/2000/svg">
<path d="M184.119 25.0507C185.48 30.3673 184.815 20.5788 187.487 8.59406C190.16 -3.39063 194.728 1.47877 194.728 1.47877" stroke="#263238" stroke-linecap="round" stroke-linejoin="round"/>
<path d="M183.282 12.8076L191.662 9.42883" stroke="#263238" stroke-linecap="round" stroke-linejoin="round"/>
<path d="M198.59 5.37428C198.59 5.37428 193.548 15.5702 201.122 19.9129" stroke="#263238" stroke-linecap="round" stroke-linejoin="round"/>
<path d="M205.69 2.4725C205.69 2.4725 213.949 6.99409 208.776 16.7925" stroke="#263238" stroke-linecap="round" stroke-linejoin="round"/>
<path d="M200.022 8.82262L205.942 13.0858" stroke="#263238" stroke-linecap="round" stroke-linejoin="round"/>
<path d="M204.671 6.95439L200.032 14.2187" stroke="#263238" stroke-linecap="round" stroke-linejoin="round"/>
<path d="M24.2994 265.241C24.2994 265.241 10.2516 265.043 10.181 276.988" stroke="#263238" stroke-linecap="round" stroke-linejoin="round"/>
<path d="M23.1296 272.774C22.8371 271.015 16.7259 268.799 15.667 273.39C14.6082 277.981 22.2018 275.229 24.5515 273.082C24.5515 273.082 20.195 277.256 21.5261 278.428" stroke="#263238" stroke-linecap="round" stroke-linejoin="round"/>
<path d="M23.9869 279.73C23.9869 279.73 22.1414 282.007 20.1447 280.923" stroke="#263238" stroke-linecap="round" stroke-linejoin="round"/>
<path d="M36.2799 271.78L25.7416 282.324C25.7416 282.324 31.046 277.027 34.1218 278.737C37.954 280.804 32.9823 286.468 28.888 282.413" stroke="#263238" stroke-linecap="round" stroke-linejoin="round"/>
<path d="M41.6045 274.622C41.6045 274.622 44.3979 287.233 29.9771 287.68" stroke="#263238" stroke-linecap="round" stroke-linejoin="round"/>
<path d="M229.742 60.2395L234.824 61.0643L234.895 72.4428L246.028 52.4385L263.595 55.2807" stroke="#263238" stroke-linecap="round" stroke-linejoin="round"/>
<path d="M247.954 61.2034L255.679 74.639" stroke="#263238" stroke-linecap="round" stroke-linejoin="round"/>
<path d="M257.666 62.7736L243.84 72.7211" stroke="#263238" stroke-linecap="round" stroke-linejoin="round"/>
<path d="M160.289 80.4923C158.988 78.8625 151.496 80.0252 153.018 85.2524C154.541 90.4795 160.733 83.5133 161.913 80.0252C161.913 80.0252 159.846 86.6933 161.913 87.1405" stroke="#263238" stroke-linecap="round" stroke-linejoin="round"/>
<path d="M166.027 75.1161L164.353 80.9792C164.353 80.9792 165.19 77.998 166.663 77.998C168.468 77.998 167.812 80.9792 165.503 80.3631" stroke="#263238" stroke-linecap="round" stroke-linejoin="round"/>
<path d="M307.292 147.382L303.762 159.953L311.477 168.281" stroke="#263238" stroke-linecap="round" stroke-linejoin="round"/>
<path d="M311.709 152.49L320.543 159.774" stroke="#263238" stroke-linecap="round" stroke-linejoin="round"/>
<path d="M317.79 150.701L313.968 159.953" stroke="#263238" stroke-linecap="round" stroke-linejoin="round"/>
<path d="M324.002 158.76C324.002 158.76 324.082 161.384 322.933 161.742" stroke="#263238" stroke-linecap="round" stroke-linejoin="round"/>
<path d="M325.121 149.598L330.456 153.503" stroke="#263238" stroke-linecap="round" stroke-linejoin="round"/>
<path d="M332.432 146.388L327.168 165.071" stroke="#263238" stroke-linecap="round" stroke-linejoin="round"/>
<path d="M332.694 139.899L341.246 149.439L337.606 159.873" stroke="#263238" stroke-linecap="round" stroke-linejoin="round"/>
<path d="M97.1802 386.072L109.554 349.78L124.56 366.286L97.1802 386.072Z" stroke="#263238" stroke-linecap="round" stroke-linejoin="round"/>
<path d="M120.879 368.94L117.712 365.372L121.091 362.49" stroke="#263238" stroke-linecap="round" stroke-linejoin="round"/>
<path d="M24.0413 182.171C30.4681 179.547 33.5201 172.287 30.858 165.953C28.1959 159.62 20.8279 156.613 14.4011 159.236C7.97425 161.859 4.92232 169.12 7.5844 175.453C10.2465 181.786 17.6145 184.794 24.0413 182.171Z" stroke="#263238" stroke-linecap="round" stroke-linejoin="round"/>
<path d="M33.194 173.607C40.9133 173.607 47.1711 167.441 47.1711 159.834C47.1711 152.227 40.9133 146.06 33.194 146.06C25.4746 146.06 19.2168 152.227 19.2168 159.834C19.2168 167.441 25.4746 173.607 33.194 173.607Z" stroke="#263238" stroke-linecap="round" stroke-linejoin="round"/>
<path d="M21.6976 158.532L19.9933 164.365" stroke="#263238" stroke-linecap="round" stroke-linejoin="round"/>
<path d="M24.108 159.257L21.6978 167.664" stroke="#263238" stroke-linecap="round" stroke-linejoin="round"/>
<path d="M26.639 160.668L24.1078 170.179" stroke="#263238" stroke-linecap="round" stroke-linejoin="round"/>
<path d="M29.4526 163.461L27.6475 172.484" stroke="#263238" stroke-linecap="round" stroke-linejoin="round"/>
<path d="M31.0359 166.402L29.4526 173.11" stroke="#263238" stroke-linecap="round" stroke-linejoin="round"/>
<path d="M7.17588 154.795C6.07667 154.467 3.06139 157.29 5.40101 159.188C7.74062 161.086 8.3356 156.028 7.76079 154.09C7.76079 154.09 8.94068 157.737 10.0096 157.3" stroke="#263238" stroke-linecap="round" stroke-linejoin="round"/>
<path d="M23.4321 138.865L27.4659 146.1C27.4659 146.1 25.449 142.483 26.871 141.131C28.6055 139.462 30.9048 142.99 28.0004 144.47" stroke="#263238" stroke-linecap="round" stroke-linejoin="round"/>
<path d="M97.14 138.001L102.838 143.317" stroke="#263238" stroke-linecap="round" stroke-linejoin="round"/>
<path d="M102.838 136.62L98.0677 143.635" stroke="#263238" stroke-linecap="round" stroke-linejoin="round"/>
<path d="M108.445 138.637L114.143 136.54" stroke="#263238" stroke-linecap="round" stroke-linejoin="round"/>
<path d="M116.875 130.687L120.345 133.708" stroke="#263238" stroke-linecap="round" stroke-linejoin="round"/>
<path d="M122.997 127.05L118.61 141.896" stroke="#263238" stroke-linecap="round" stroke-linejoin="round"/>
<path d="M372.044 124.068L371.802 112.72H380.505C380.505 112.72 375.685 115.343 377.903 121.445C380.122 127.547 383.692 124.068 383.692 124.068" stroke="#263238" stroke-linecap="round" stroke-linejoin="round"/>
<path d="M357.301 317.662L367.204 310.944L380.314 311.849L381.13 328.226L371.51 335.013L359.63 334.158L357.301 317.662Z" stroke="#263238" stroke-linecap="round" stroke-linejoin="round"/>
<path d="M359.63 334.158L369.211 327.361L381.13 328.226" stroke="#263238" stroke-linecap="round" stroke-linejoin="round"/>
<path d="M369.221 327.361L367.204 310.944" stroke="#263238" stroke-linecap="round" stroke-linejoin="round"/>
<path d="M357.301 317.662L370.38 319.153L380.314 311.848" stroke="#263238" stroke-linecap="round" stroke-linejoin="round"/>
<path d="M370.38 319.153L371.51 335.013" stroke="#263238" stroke-linecap="round" stroke-linejoin="round"/>
<path d="M359.106 194.655L358.682 216.488L378.095 207.802L359.106 194.655Z" stroke="#263238" stroke-linecap="round" stroke-linejoin="round"/>
<path d="M359.106 194.655L368.353 212.036" stroke="#263238" stroke-linecap="round" stroke-linejoin="round"/>
<path d="M366.871 209.243L369.12 208.17L370.632 211.141" stroke="#263238" stroke-linecap="round" stroke-linejoin="round"/>
<path d="M189.847 192.588L197.874 201.065" stroke="#263238" stroke-linecap="round" stroke-linejoin="round"/>
<path d="M197.935 191.445L191.188 200.548" stroke="#263238" stroke-linecap="round" stroke-linejoin="round"/>
<path d="M201.223 187.003C201.608 186.827 202.048 186.809 202.447 186.952C202.846 187.095 203.171 187.389 203.35 187.768C203.414 187.904 203.458 188.048 203.481 188.195C203.875 190.104 200.698 192.588 200.698 192.588H205.226" stroke="#263238" stroke-linecap="round" stroke-linejoin="round"/>
<path d="M64.8695 65.576C65.2538 60.7609 66.8634 56.1189 69.5496 52.0788C72.2358 48.0388 75.9119 44.7311 80.2383 42.4612" stroke="#263238" stroke-linecap="round" stroke-linejoin="round"/>
<path d="M87.1664 95.8855C79.8114 94.1473 73.4294 89.6612 69.3672 83.3742" stroke="#263238" stroke-linecap="round" stroke-linejoin="round"/>
<path d="M123.118 70.1572C122.495 77.7678 118.833 84.8239 112.936 89.7763C107.039 94.7286 99.3882 97.1725 91.6641 96.5712" stroke="#263238" stroke-linecap="round" stroke-linejoin="round"/>
<path d="M96.313 39.1719C102.953 39.6965 109.212 42.439 114.055 46.9459C118.898 51.4527 122.035 57.4538 122.946 63.9562" stroke="#263238" stroke-linecap="round" stroke-linejoin="round"/>
<path d="M106.599 90.0323C102.523 92.2861 97.9014 93.4056 93.2292 93.2711C88.557 93.1367 84.0097 91.7533 80.0737 89.2689C76.1377 86.7846 72.961 83.2927 70.8833 79.1666C68.8056 75.0406 67.9051 70.4357 68.278 65.8443" stroke="#263238" stroke-linecap="round" stroke-linejoin="round"/>
<path d="M69.9319 58.729C71.2888 55.2528 73.4047 52.113 76.1296 49.532C78.8546 46.9509 82.122 44.9917 85.7006 43.7931C89.2792 42.5945 93.0814 42.1858 96.838 42.5958C100.595 43.0059 104.214 44.2248 107.44 46.1661C110.665 48.1075 113.418 50.7239 115.504 53.83C117.589 56.9362 118.957 60.4562 119.509 64.1408C120.061 67.8254 119.784 71.5846 118.698 75.1521C117.612 78.7196 115.744 82.0083 113.225 84.7853" stroke="#263238" stroke-linecap="round" stroke-linejoin="round"/>
<path d="M91.4624 49.5865L93.9936 67.8716L108.253 63.499" stroke="#263238" stroke-linecap="round" stroke-linejoin="round"/>
<path d="M316.337 103.408C312.238 103.447 308.224 102.258 304.826 99.9983C301.428 97.7385 298.807 94.5148 297.31 90.7541C295.813 86.9934 295.51 82.8733 296.443 78.9395C297.375 75.0058 299.499 71.4441 302.532 68.7262" stroke="#263238" stroke-linecap="round" stroke-linejoin="round"/>
<path d="M335.286 89.923C334.304 92.779 332.674 95.3771 330.522 97.5206C328.369 99.6642 325.75 101.297 322.862 102.295" stroke="#263238" stroke-linecap="round" stroke-linejoin="round"/>
<path d="M309.429 64.6717C314.49 62.9169 320.05 63.2147 324.888 65.4994C329.725 67.7842 333.444 71.8689 335.226 76.8551" stroke="#263238" stroke-linecap="round" stroke-linejoin="round"/>
<path d="M326.129 68.8951C328.22 70.2872 329.987 72.1001 331.314 74.2144C332.642 76.3286 333.499 78.6961 333.83 81.1607C334.161 83.6254 333.958 86.1312 333.235 88.5129C332.511 90.8946 331.283 93.0981 329.632 94.9782C327.982 96.8582 325.945 98.372 323.657 99.4197C321.369 100.467 318.882 101.025 316.359 101.057C313.836 101.088 311.336 100.592 309.022 99.6011C306.708 98.6104 304.633 97.1476 302.935 95.3091" stroke="#263238" stroke-linecap="round" stroke-linejoin="round"/>
<path d="M299.295 89.3069C298.221 86.2974 297.999 83.0569 298.65 79.9324C299.302 76.8078 300.804 73.9167 302.995 71.5686C305.187 69.2206 307.985 67.5039 311.09 66.6023C314.195 65.7007 317.49 65.6483 320.623 66.4505" stroke="#263238" stroke-linecap="round" stroke-linejoin="round"/>
<path d="M309.329 72.6118L316.146 83.4735L309.934 91.4136" stroke="#263238" stroke-linecap="round" stroke-linejoin="round"/>
<path d="M173.238 380.527C173.228 377.92 173.866 375.351 175.097 373.043C176.327 370.736 178.113 368.761 180.297 367.29" stroke="#263238" stroke-linecap="round" stroke-linejoin="round"/>
<path d="M201.182 391.538C199.259 393.531 196.846 395.001 194.177 395.807C191.508 396.613 188.673 396.726 185.947 396.137C183.22 395.547 180.694 394.275 178.613 392.442C176.531 390.609 174.965 388.278 174.065 385.675" stroke="#263238" stroke-linecap="round" stroke-linejoin="round"/>
<path d="M189.424 364.537C193.727 364.537 197.854 366.222 200.897 369.221C203.94 372.219 205.65 376.286 205.65 380.527" stroke="#263238" stroke-linecap="round" stroke-linejoin="round"/>
<path d="M189.423 394.628C185.628 394.628 181.988 393.143 179.305 390.498C176.621 387.854 175.114 384.267 175.114 380.527" stroke="#263238" stroke-linecap="round" stroke-linejoin="round"/>
<path d="M178.28 371.673C179.607 370.058 181.279 368.751 183.177 367.847C185.075 366.942 187.153 366.462 189.261 366.441C191.369 366.419 193.456 366.856 195.373 367.721C197.29 368.586 198.99 369.858 200.35 371.445C201.711 373.033 202.699 374.896 203.244 376.903C203.789 378.91 203.877 381.011 203.503 383.056C203.129 385.101 202.301 387.039 201.079 388.732C199.856 390.425 198.27 391.831 196.432 392.85" stroke="#263238" stroke-linecap="round" stroke-linejoin="round"/>
<path d="M187.205 390.107L189.423 380.527L186.328 372.696" stroke="#263238" stroke-linecap="round" stroke-linejoin="round"/>
<path d="M0.5 428.744H408.5" stroke="#263238" stroke-linecap="round" stroke-linejoin="round"/>
<path d="M207.515 219.191L200.87 343.877L116.674 339.525L117.38 326.308L123.32 214.828L176.334 217.571L207.515 219.191Z" fill="white"/>
<mask id="mask0_1_360" style="mask-type:luminance" maskUnits="userSpaceOnUse" x="116" y="214" width="92" height="130">
<path d="M207.515 219.191L200.87 343.877L116.674 339.525L117.38 326.308L123.32 214.828L176.334 217.571L207.515 219.191Z" fill="white"/>
</mask>
<g mask="url(#mask0_1_360)">
<path opacity="0.2" d="M181.235 292.242L162.266 293.782L167.802 317.324L117.38 326.308L123.32 214.828L176.334 217.571L181.235 292.242Z" fill="black" fill-opacity="0.7"/>
</g>
<path d="M207.515 219.191L200.87 343.877L116.674 339.525L117.38 326.308L123.32 214.828L176.334 217.571L207.515 219.191Z" stroke="#263238" stroke-linecap="round" stroke-linejoin="round"/>
<path d="M129.259 223.355L151.173 224.488" stroke="#263238" stroke-width="2" stroke-linecap="round" stroke-linejoin="round"/>
<path d="M129.037 227.499L143.942 228.274" stroke="#263238" stroke-width="2" stroke-linecap="round" stroke-linejoin="round"/>
<path d="M133.858 237.565L196.886 240.825" stroke="#263238" stroke-width="2" stroke-linecap="round" stroke-linejoin="round"/>
<path d="M133.636 241.709L196.664 244.969" stroke="#263238" stroke-width="2" stroke-linecap="round" stroke-linejoin="round"/>
<path d="M133.384 246.549L187.134 249.321" stroke="#263238" stroke-width="2" stroke-linecap="round" stroke-linejoin="round"/>
<path d="M133.406 250.963L133.136 256.015L138.262 256.28L138.532 251.229L133.406 250.963Z" stroke="#263238" stroke-linecap="round" stroke-linejoin="round"/>
<path d="M142.697 251.448L142.428 256.499L147.554 256.765L147.823 251.714L142.697 251.448Z" stroke="#263238" stroke-linecap="round" stroke-linejoin="round"/>
<path d="M151.977 251.934L151.708 256.985L156.834 257.25L157.103 252.199L151.977 251.934Z" stroke="#263238" stroke-linecap="round" stroke-linejoin="round"/>
<path d="M161.268 252.418L160.999 257.47L166.125 257.735L166.394 252.684L161.268 252.418Z" stroke="#263238" stroke-linecap="round" stroke-linejoin="round"/>
<path d="M130.5 237.386C130.493 237.551 130.454 237.712 130.384 237.862C130.314 238.011 130.215 238.146 130.092 238.258C129.969 238.369 129.826 238.456 129.669 238.513C129.512 238.57 129.345 238.595 129.179 238.589C128.839 238.572 128.52 238.422 128.292 238.173C128.064 237.925 127.946 237.597 127.963 237.262C127.981 236.927 128.132 236.613 128.385 236.389C128.637 236.164 128.97 236.048 129.31 236.065C129.477 236.072 129.64 236.112 129.792 236.182C129.943 236.253 130.078 236.351 130.191 236.473C130.303 236.595 130.39 236.738 130.447 236.893C130.503 237.048 130.528 237.212 130.52 237.376L130.5 237.386Z" fill="#263238"/>
<path d="M132.567 261.743L195.595 265.003" stroke="#263238" stroke-width="2" stroke-linecap="round" stroke-linejoin="round"/>
<path d="M132.345 265.887L195.373 269.147" stroke="#263238" stroke-width="2" stroke-linecap="round" stroke-linejoin="round"/>
<path d="M132.093 270.727L185.844 273.499" stroke="#263238" stroke-width="2" stroke-linecap="round" stroke-linejoin="round"/>
<path d="M132.104 275.157L131.835 280.208L136.961 280.474L137.23 275.423L132.104 275.157Z" stroke="#263238" stroke-linecap="round" stroke-linejoin="round"/>
<path d="M141.405 275.632L141.135 280.683L146.261 280.949L146.531 275.898L141.405 275.632Z" stroke="#263238" stroke-linecap="round" stroke-linejoin="round"/>
<path d="M150.686 276.108L150.416 281.159L155.542 281.424L155.812 276.373L150.686 276.108Z" stroke="#263238" stroke-linecap="round" stroke-linejoin="round"/>
<path d="M159.967 276.592L159.697 281.644L164.823 281.909L165.092 276.858L159.967 276.592Z" stroke="#263238" stroke-linecap="round" stroke-linejoin="round"/>
<path d="M129.219 261.564C129.211 261.73 129.17 261.893 129.099 262.043C129.027 262.193 128.926 262.328 128.801 262.44C128.677 262.552 128.531 262.638 128.373 262.694C128.214 262.75 128.046 262.775 127.878 262.767C127.623 262.755 127.377 262.669 127.172 262.519C126.967 262.37 126.811 262.164 126.725 261.927C126.639 261.69 126.625 261.434 126.687 261.19C126.748 260.946 126.882 260.725 127.071 260.556C127.259 260.387 127.495 260.276 127.747 260.239C127.999 260.201 128.257 260.238 128.488 260.345C128.719 260.452 128.913 260.624 129.045 260.839C129.176 261.054 129.241 261.303 129.229 261.555L129.219 261.564Z" fill="#263238"/>
<path d="M131.286 285.921L194.304 289.181" stroke="#263238" stroke-width="2" stroke-linecap="round" stroke-linejoin="round"/>
<path d="M131.064 290.065L194.083 293.325" stroke="#263238" stroke-width="2" stroke-linecap="round" stroke-linejoin="round"/>
<path d="M130.802 294.895L184.553 297.678" stroke="#263238" stroke-width="2" stroke-linecap="round" stroke-linejoin="round"/>
<path d="M130.823 299.321L130.554 304.372L135.68 304.637L135.949 299.586L130.823 299.321Z" stroke="#263238" stroke-linecap="round" stroke-linejoin="round"/>
<path d="M141.202 299.775L140.945 304.837L146.082 305.09L146.338 300.028L141.202 299.775Z" stroke="#263238" stroke-width="1.00125" stroke-linecap="round" stroke-linejoin="round"/>
<path d="M149.394 300.291L149.125 305.343L154.251 305.608L154.52 300.557L149.394 300.291Z" stroke="#263238" stroke-linecap="round" stroke-linejoin="round"/>
<path d="M158.696 300.766L158.426 305.817L163.552 306.083L163.822 301.031L158.696 300.766Z" stroke="#263238" stroke-linecap="round" stroke-linejoin="round"/>
<path d="M127.928 285.743C127.92 285.908 127.88 286.071 127.808 286.221C127.736 286.371 127.635 286.506 127.511 286.618C127.386 286.73 127.24 286.816 127.082 286.872C126.923 286.928 126.755 286.953 126.587 286.945C126.245 286.945 125.916 286.811 125.674 286.572C125.432 286.334 125.296 286.01 125.296 285.673C125.296 285.336 125.432 285.012 125.674 284.774C125.916 284.535 126.245 284.401 126.587 284.401H126.768C126.937 284.409 127.102 284.449 127.254 284.52C127.407 284.59 127.543 284.69 127.657 284.812C127.77 284.935 127.858 285.079 127.915 285.235C127.972 285.391 127.997 285.557 127.989 285.723L127.928 285.743Z" fill="#263238"/>
<path d="M129.955 310.785L192.973 314.055" stroke="#263238" stroke-width="2" stroke-linecap="round" stroke-linejoin="round"/>
<path d="M129.733 314.929L192.762 318.199" stroke="#263238" stroke-width="2" stroke-linecap="round" stroke-linejoin="round"/>
<path d="M129.481 319.769L183.232 322.551" stroke="#263238" stroke-width="2" stroke-linecap="round" stroke-linejoin="round"/>
<path d="M129.487 324.197L129.218 329.248L134.343 329.514L134.613 324.462L129.487 324.197Z" stroke="#263238" stroke-linecap="round" stroke-linejoin="round"/>
<path d="M138.79 324.672L138.52 329.723L143.646 329.989L143.915 324.937L138.79 324.672Z" stroke="#263238" stroke-linecap="round" stroke-linejoin="round"/>
<path d="M148.09 325.147L147.821 330.198L152.947 330.464L153.216 325.413L148.09 325.147Z" stroke="#263238" stroke-linecap="round" stroke-linejoin="round"/>
<path d="M157.371 325.643L157.102 330.694L162.228 330.959L162.497 325.908L157.371 325.643Z" stroke="#263238" stroke-linecap="round" stroke-linejoin="round"/>
<path d="M126.597 310.616C126.583 310.865 126.494 311.105 126.342 311.304C126.189 311.503 125.981 311.654 125.742 311.736C125.503 311.818 125.244 311.829 124.999 311.767C124.754 311.705 124.533 311.573 124.364 311.387C124.195 311.201 124.086 310.97 124.05 310.723C124.015 310.476 124.054 310.224 124.163 309.999C124.273 309.774 124.447 309.586 124.665 309.459C124.883 309.332 125.134 309.271 125.387 309.285C125.555 309.293 125.72 309.335 125.872 309.407C126.024 309.479 126.16 309.579 126.272 309.703C126.385 309.827 126.471 309.971 126.527 310.128C126.583 310.284 126.607 310.45 126.597 310.616Z" fill="#263238"/>
<path d="M135.149 253.068L135.814 254.201L138.547 251.229" stroke="#263238" stroke-width="2" stroke-linecap="round" stroke-linejoin="round"/>
<path d="M152.454 277.902L153.119 279.035L155.852 276.063" stroke="#263238" stroke-width="2" stroke-linecap="round" stroke-linejoin="round"/>
<path d="M161.136 303.421L161.802 304.554L164.535 301.573" stroke="#263238" stroke-width="2" stroke-linecap="round" stroke-linejoin="round"/>
<path d="M140.564 326.198L141.23 327.321L143.963 324.35" stroke="#263238" stroke-width="2" stroke-linecap="round" stroke-linejoin="round"/>
<path d="M151.566 308.589L70.3355 330.839L36.4111 210.525L70.043 201.313L117.642 188.285L148.42 297.439L151.566 308.589Z" fill="white"/>
<mask id="mask1_1_360" style="mask-type:luminance" maskUnits="userSpaceOnUse" x="36" y="188" width="116" height="143">
<path d="M151.566 308.589L70.3355 330.839L36.4111 210.525L70.043 201.313L117.642 188.285L148.42 297.439L151.566 308.589Z" fill="white"/>
</mask>
<g mask="url(#mask1_1_360)">
<path opacity="0.2" d="M148.42 297.439L85.6136 301.444L70.0431 201.313L117.642 188.285L148.42 297.439Z" fill="black" fill-opacity="0.7"/>
</g>
<path d="M151.566 308.589L70.3355 330.839L36.4111 210.525L70.043 201.313L117.642 188.285L148.42 297.439L151.566 308.589Z" stroke="#263238" stroke-linecap="round" stroke-linejoin="round"/>
<path d="M44.8014 216.746L65.9386 210.962" stroke="#263238" stroke-width="2" stroke-linecap="round" stroke-linejoin="round"/>
<path d="M45.9208 220.751L60.3013 216.816" stroke="#263238" stroke-width="2" stroke-linecap="round" stroke-linejoin="round"/>
<path d="M53.7362 228.78L114.546 212.135" stroke="#263238" stroke-width="2" stroke-linecap="round" stroke-linejoin="round"/>
<path d="M54.8657 232.775L115.675 216.13" stroke="#263238" stroke-width="2" stroke-linecap="round" stroke-linejoin="round"/>
<path d="M56.1768 237.446L108.042 223.245" stroke="#263238" stroke-width="2" stroke-linecap="round" stroke-linejoin="round"/>
<path d="M62.5855 240.273L57.6399 241.627L59.0142 246.501L63.9598 245.147L62.5855 240.273Z" stroke="#263238" stroke-linecap="round" stroke-linejoin="round"/>
<path d="M71.5521 237.809L66.6064 239.163L67.9808 244.037L72.9264 242.682L71.5521 237.809Z" stroke="#263238" stroke-linecap="round" stroke-linejoin="round"/>
<path d="M80.5209 235.351L75.5753 236.706L76.9496 241.579L81.8953 240.225L80.5209 235.351Z" stroke="#263238" stroke-linecap="round" stroke-linejoin="round"/>
<path d="M89.4736 232.902L84.528 234.256L85.9023 239.13L90.8479 237.775L89.4736 232.902Z" stroke="#263238" stroke-linecap="round" stroke-linejoin="round"/>
<path d="M50.4991 229.665C50.59 229.988 50.5471 230.333 50.3797 230.625C50.2124 230.916 49.9343 231.131 49.6066 231.22C49.279 231.31 48.9286 231.267 48.6327 231.103C48.3367 230.938 48.1193 230.664 48.0284 230.341C47.9375 230.018 47.9804 229.673 48.1478 229.381C48.3151 229.089 48.5932 228.875 48.9209 228.785C49.2485 228.696 49.5989 228.738 49.8948 228.903C50.1908 229.068 50.4082 229.342 50.4991 229.665Z" fill="#263238"/>
<path d="M60.3114 252.104L121.121 235.459" stroke="#263238" stroke-width="2" stroke-linecap="round" stroke-linejoin="round"/>
<path d="M61.4408 256.109L122.251 239.453" stroke="#263238" stroke-width="2" stroke-linecap="round" stroke-linejoin="round"/>
<path d="M62.762 260.769L114.617 246.569" stroke="#263238" stroke-width="2" stroke-linecap="round" stroke-linejoin="round"/>
<path d="M69.1662 263.591L64.2206 264.946L65.5949 269.819L70.5405 268.465L69.1662 263.591Z" stroke="#263238" stroke-linecap="round" stroke-linejoin="round"/>
<path d="M78.1258 261.139L73.1802 262.494L74.5545 267.367L79.5001 266.013L78.1258 261.139Z" stroke="#263238" stroke-linecap="round" stroke-linejoin="round"/>
<path d="M87.095 258.685L82.1494 260.039L83.5237 264.912L88.4694 263.558L87.095 258.685Z" stroke="#263238" stroke-linecap="round" stroke-linejoin="round"/>
<path d="M96.0713 256.218L91.1257 257.572L92.5001 262.446L97.4457 261.091L96.0713 256.218Z" stroke="#263238" stroke-linecap="round" stroke-linejoin="round"/>
<path d="M57.0843 252.998C57.1525 253.241 57.1464 253.497 57.0666 253.736C56.9869 253.975 56.8371 254.185 56.6362 254.34C56.4354 254.495 56.1924 254.588 55.938 254.607C55.6836 254.626 55.4293 254.57 55.207 254.447C54.9847 254.323 54.8045 254.138 54.6892 253.914C54.5738 253.689 54.5285 253.436 54.5589 253.187C54.5893 252.937 54.694 252.702 54.8599 252.511C55.0258 252.32 55.2454 252.182 55.491 252.114C55.6532 252.068 55.8229 252.055 55.9904 252.075C56.1579 252.094 56.3199 252.146 56.467 252.227C56.6141 252.308 56.7435 252.417 56.8477 252.548C56.9519 252.679 57.0289 252.828 57.0743 252.988L57.0843 252.998Z" fill="#263238"/>
<path d="M66.8965 275.437L127.696 258.782" stroke="#263238" stroke-width="2" stroke-linecap="round" stroke-linejoin="round"/>
<path d="M68.0261 279.432L128.826 262.787" stroke="#263238" stroke-width="2" stroke-linecap="round" stroke-linejoin="round"/>
<path d="M69.337 284.103L121.202 269.902" stroke="#263238" stroke-width="2" stroke-linecap="round" stroke-linejoin="round"/>
<path d="M75.7375 286.915L70.7919 288.269L72.1662 293.143L77.1118 291.788L75.7375 286.915Z" stroke="#263238" stroke-linecap="round" stroke-linejoin="round"/>
<path d="M84.7166 284.457L79.771 285.812L81.1453 290.685L86.091 289.331L84.7166 284.457Z" stroke="#263238" stroke-linecap="round" stroke-linejoin="round"/>
<path d="M93.6661 282.005L88.7205 283.36L90.0948 288.233L95.0404 286.879L93.6661 282.005Z" stroke="#263238" stroke-linecap="round" stroke-linejoin="round"/>
<path d="M102.635 279.551L97.6897 280.905L99.064 285.779L104.01 284.424L102.635 279.551Z" stroke="#263238" stroke-linecap="round" stroke-linejoin="round"/>
<path d="M63.6594 276.322C63.7276 276.564 63.7214 276.821 63.6417 277.059C63.5619 277.298 63.4122 277.508 63.2113 277.663C63.0104 277.818 62.7675 277.911 62.5131 277.93C62.2587 277.949 62.0043 277.893 61.7821 277.77C61.5598 277.647 61.3796 277.461 61.2643 277.237C61.1489 277.013 61.1036 276.76 61.1339 276.51C61.1643 276.261 61.2691 276.026 61.435 275.835C61.6009 275.644 61.8205 275.505 62.0661 275.437C62.2283 275.392 62.398 275.379 62.5655 275.398C62.733 275.417 62.8949 275.469 63.042 275.55C63.1891 275.632 63.3185 275.741 63.4227 275.871C63.5269 276.002 63.604 276.152 63.6493 276.312L63.6594 276.322Z" fill="#263238"/>
<path d="M73.6633 299.427L134.463 282.781" stroke="#263238" stroke-width="2" stroke-linecap="round" stroke-linejoin="round"/>
<path d="M74.7827 303.431L135.592 286.776" stroke="#263238" stroke-width="2" stroke-linecap="round" stroke-linejoin="round"/>
<path d="M76.1038 308.092L127.968 293.891" stroke="#263238" stroke-width="2" stroke-linecap="round" stroke-linejoin="round"/>
<path d="M82.5053 310.916L77.5597 312.27L78.934 317.143L83.8796 315.789L82.5053 310.916Z" stroke="#263238" stroke-linecap="round" stroke-linejoin="round"/>
<path d="M91.4742 308.458L86.5286 309.813L87.9029 314.686L92.8485 313.332L91.4742 308.458Z" stroke="#263238" stroke-linecap="round" stroke-linejoin="round"/>
<path d="M100.444 306.004L95.4979 307.358L96.8723 312.232L101.818 310.877L100.444 306.004Z" stroke="#263238" stroke-linecap="round" stroke-linejoin="round"/>
<path d="M109.403 303.552L104.457 304.906L105.832 309.78L110.777 308.425L109.403 303.552Z" stroke="#263238" stroke-linecap="round" stroke-linejoin="round"/>
<path d="M70.4262 300.311C70.5211 300.635 70.4815 300.983 70.316 301.279C70.1505 301.574 69.8727 301.793 69.5438 301.886C69.2148 301.98 68.8616 301.941 68.5618 301.778C68.2621 301.614 68.0403 301.341 67.9454 301.017C67.8518 300.691 67.8926 300.342 68.0588 300.046C68.2251 299.75 68.5033 299.531 68.8328 299.436C69.1591 299.347 69.5078 299.388 69.804 299.549C70.1002 299.711 70.32 299.981 70.4161 300.301L70.4262 300.311Z" fill="#263238"/>
<path d="M68.3992 240.755L69.3975 241.62L71.0312 237.943" stroke="#263238" stroke-width="2" stroke-linecap="round" stroke-linejoin="round"/>
<path d="M65.9689 266.782L66.9672 267.646L68.5909 263.969" stroke="#263238" stroke-width="2" stroke-linecap="round" stroke-linejoin="round"/>
<path d="M72.5439 289.867L73.5423 290.731L75.1659 287.054" stroke="#263238" stroke-width="2" stroke-linecap="round" stroke-linejoin="round"/>
<path d="M97.2208 308.778L98.2192 309.642L99.8529 305.965" stroke="#263238" stroke-width="2" stroke-linecap="round" stroke-linejoin="round"/>
<path d="M159.499 160.492L75.5789 168.441L87.7017 292.733L171.622 284.785L159.499 160.492Z" fill="white" stroke="#263238" stroke-linecap="round" stroke-linejoin="round"/>
<path d="M82.7292 176.022L104.572 173.955" stroke="#263238" stroke-width="2" stroke-linecap="round" stroke-linejoin="round"/>
<path d="M83.1327 180.157L97.9872 178.745" stroke="#263238" stroke-width="2" stroke-linecap="round" stroke-linejoin="round"/>
<path d="M89.4052 189.408L152.222 183.455" stroke="#263238" stroke-width="2" stroke-linecap="round" stroke-linejoin="round"/>
<path d="M89.8086 193.532L152.625 187.589" stroke="#263238" stroke-width="2" stroke-linecap="round" stroke-linejoin="round"/>
<path d="M90.2825 198.352L143.862 193.284" stroke="#263238" stroke-width="2" stroke-linecap="round" stroke-linejoin="round"/>
<path d="M96.0984 202.228L90.9889 202.712L91.48 207.747L96.5895 207.263L96.0984 202.228Z" stroke="#263238" stroke-linecap="round" stroke-linejoin="round"/>
<path d="M105.36 201.348L100.25 201.832L100.741 206.867L105.851 206.383L105.36 201.348Z" stroke="#263238" stroke-linecap="round" stroke-linejoin="round"/>
<path d="M114.621 200.479L109.511 200.963L110.003 205.998L115.112 205.514L114.621 200.479Z" stroke="#263238" stroke-linecap="round" stroke-linejoin="round"/>
<path d="M123.881 199.591L118.772 200.075L119.263 205.11L124.372 204.626L123.881 199.591Z" stroke="#263238" stroke-linecap="round" stroke-linejoin="round"/>
<path d="M86.0673 189.726C86.092 189.976 86.0408 190.228 85.9203 190.45C85.7997 190.671 85.6152 190.853 85.39 190.971C85.1648 191.09 84.9091 191.14 84.6551 191.115C84.4012 191.09 84.1604 190.991 83.9632 190.832C83.766 190.672 83.6212 190.459 83.5472 190.218C83.4732 189.977 83.4732 189.72 83.5473 189.48C83.6214 189.239 83.7662 189.025 83.9634 188.866C84.1607 188.706 84.4015 188.608 84.6555 188.583C84.823 188.567 84.9922 188.583 85.1534 188.631C85.3146 188.679 85.4645 188.758 85.5947 188.863C85.7249 188.968 85.8328 189.098 85.9121 189.244C85.9915 189.39 86.0408 189.551 86.0572 189.716L86.0673 189.726Z" fill="#263238"/>
<path d="M91.7549 213.506L154.571 207.564" stroke="#263238" stroke-width="2" stroke-linecap="round" stroke-linejoin="round"/>
<path d="M92.1583 217.64L154.975 211.688" stroke="#263238" stroke-width="2" stroke-linecap="round" stroke-linejoin="round"/>
<path d="M92.6323 222.46L146.211 217.382" stroke="#263238" stroke-width="2" stroke-linecap="round" stroke-linejoin="round"/>
<path d="M98.4474 226.322L93.3379 226.806L93.829 231.841L98.9385 231.357L98.4474 226.322Z" stroke="#263238" stroke-linecap="round" stroke-linejoin="round"/>
<path d="M107.709 225.452L102.599 225.936L103.09 230.971L108.2 230.487L107.709 225.452Z" stroke="#263238" stroke-linecap="round" stroke-linejoin="round"/>
<path d="M116.97 224.574L111.86 225.058L112.352 230.093L117.461 229.609L116.97 224.574Z" stroke="#263238" stroke-linecap="round" stroke-linejoin="round"/>
<path d="M126.232 223.715L121.123 224.199L121.614 229.234L126.723 228.75L126.232 223.715Z" stroke="#263238" stroke-linecap="round" stroke-linejoin="round"/>
<path d="M88.417 213.824C88.4417 214.075 88.3905 214.327 88.27 214.548C88.1494 214.77 87.9649 214.951 87.7397 215.07C87.5146 215.188 87.2588 215.238 87.0049 215.213C86.7509 215.188 86.5101 215.09 86.3129 214.93C86.1157 214.771 85.971 214.557 85.8969 214.316C85.8229 214.076 85.8229 213.819 85.897 213.578C85.9711 213.338 86.1159 213.124 86.3132 212.964C86.5104 212.805 86.7512 212.706 87.0052 212.682C87.1741 212.665 87.3446 212.682 87.507 212.73C87.6694 212.779 87.8205 212.858 87.9516 212.965C88.0827 213.071 88.1913 213.201 88.2712 213.349C88.3511 213.496 88.4006 213.658 88.417 213.824Z" fill="#263238"/>
<path d="M94.1046 237.605L156.921 231.662" stroke="#263238" stroke-width="2" stroke-linecap="round" stroke-linejoin="round"/>
<path d="M94.5079 241.739L157.324 235.786" stroke="#263238" stroke-width="2" stroke-linecap="round" stroke-linejoin="round"/>
<path d="M94.9821 246.559L148.561 241.481" stroke="#263238" stroke-width="2" stroke-linecap="round" stroke-linejoin="round"/>
<path d="M100.796 250.426L95.6869 250.91L96.178 255.945L101.287 255.461L100.796 250.426Z" stroke="#263238" stroke-linecap="round" stroke-linejoin="round"/>
<path d="M110.058 249.548L104.948 250.032L105.439 255.067L110.549 254.583L110.058 249.548Z" stroke="#263238" stroke-linecap="round" stroke-linejoin="round"/>
<path d="M119.319 248.678L114.21 249.162L114.701 254.197L119.81 253.713L119.319 248.678Z" stroke="#263238" stroke-linecap="round" stroke-linejoin="round"/>
<path d="M128.58 247.799L123.471 248.283L123.962 253.318L129.071 252.834L128.58 247.799Z" stroke="#263238" stroke-linecap="round" stroke-linejoin="round"/>
<path d="M90.7566 237.923C90.7794 238.172 90.727 238.421 90.6059 238.64C90.4848 238.86 90.3005 239.039 90.0762 239.155C89.8519 239.271 89.5978 239.318 89.3459 239.292C89.094 239.266 88.8557 239.166 88.6611 239.007C88.4666 238.847 88.3244 238.634 88.2527 238.394C88.181 238.155 88.1829 237.9 88.2583 237.662C88.3336 237.423 88.4789 237.213 88.6759 237.056C88.8729 236.899 89.1126 236.803 89.3649 236.78C89.5324 236.765 89.7013 236.783 89.8619 236.832C90.0225 236.881 90.1717 236.961 90.301 237.068C90.4302 237.174 90.5369 237.304 90.6151 237.451C90.6933 237.597 90.7414 237.758 90.7566 237.923Z" fill="#263238"/>
<path d="M96.5249 262.399L159.341 256.447" stroke="#263238" stroke-width="2" stroke-linecap="round" stroke-linejoin="round"/>
<path d="M96.9283 266.523L159.745 260.581" stroke="#263238" stroke-width="2" stroke-linecap="round" stroke-linejoin="round"/>
<path d="M97.3922 271.343L150.971 266.275" stroke="#263238" stroke-width="2" stroke-linecap="round" stroke-linejoin="round"/>
<path d="M103.213 275.217L98.1031 275.701L98.5942 280.736L103.704 280.252L103.213 275.217Z" stroke="#263238" stroke-linecap="round" stroke-linejoin="round"/>
<path d="M112.484 274.347L107.375 274.831L107.866 279.866L112.975 279.382L112.484 274.347Z" stroke="#263238" stroke-linecap="round" stroke-linejoin="round"/>
<path d="M121.734 273.459L116.625 273.943L117.116 278.978L122.225 278.494L121.734 273.459Z" stroke="#263238" stroke-linecap="round" stroke-linejoin="round"/>
<path d="M130.996 272.58L125.886 273.064L126.377 278.099L131.487 277.615L130.996 272.58Z" stroke="#263238" stroke-linecap="round" stroke-linejoin="round"/>
<path d="M93.1768 262.707C93.2037 262.958 93.1543 263.211 93.0348 263.435C92.9154 263.658 92.7312 263.841 92.5059 263.961C92.2805 264.08 92.0241 264.131 91.7692 264.107C91.5143 264.083 91.2725 263.985 91.0745 263.825C90.8766 263.665 90.7313 263.45 90.6573 263.209C90.5834 262.967 90.584 262.709 90.6591 262.468C90.7342 262.227 90.8803 262.013 91.0791 261.854C91.2778 261.695 91.52 261.598 91.775 261.574C91.9426 261.558 92.1118 261.574 92.273 261.622C92.4341 261.67 92.5841 261.749 92.7143 261.854C92.8445 261.96 92.9524 262.089 93.0317 262.235C93.1111 262.382 93.1604 262.542 93.1768 262.707Z" fill="#263238"/>
<path d="M93.0054 204.553L93.8323 205.576L96.0912 202.237" stroke="#263238" stroke-width="2" stroke-linecap="round" stroke-linejoin="round"/>
<path d="M113.85 226.594L114.677 227.618L116.926 224.279" stroke="#263238" stroke-width="2" stroke-linecap="round" stroke-linejoin="round"/>
<path d="M106.983 252.074L107.809 253.098L110.068 249.759" stroke="#263238" stroke-width="2" stroke-linecap="round" stroke-linejoin="round"/>
<path d="M127.787 274.921L128.614 275.944L130.873 272.605" stroke="#263238" stroke-width="2" stroke-linecap="round" stroke-linejoin="round"/>
<path d="M262.133 111.497H210.026C208.186 111.497 206.421 112.218 205.12 113.5C203.819 114.782 203.088 116.521 203.088 118.334V162.467C203.088 164.28 203.819 166.019 205.12 167.302C206.421 168.584 208.186 169.304 210.026 169.304H233.12L246.351 185.015L243.033 169.304H262.133C263.968 169.296 265.725 168.573 267.019 167.291C268.314 166.01 269.041 164.275 269.041 162.467V118.334C269.041 116.526 268.314 114.792 267.019 113.51C265.725 112.229 263.968 111.505 262.133 111.497Z" fill="white" stroke="#263238" stroke-linecap="round" stroke-linejoin="round"/>
<path d="M240.249 135.705V131.035L236.7 130.737C236.488 130.007 236.193 129.304 235.822 128.64L238.111 125.957L234.753 122.657L232.031 124.913C231.359 124.542 230.645 124.251 229.903 124.049L229.6 120.551H224.86L224.558 124.049C223.816 124.251 223.101 124.542 222.43 124.913L219.707 122.657L216.349 125.957L218.618 128.679C218.242 129.343 217.944 130.046 217.731 130.776L214.181 131.074V135.745L217.731 136.053C217.944 136.783 218.242 137.487 218.618 138.15L216.319 140.833L219.677 144.132L222.4 141.877C223.071 142.248 223.786 142.538 224.528 142.741L224.83 146.239H229.57L229.872 142.741C230.614 142.538 231.329 142.248 232 141.877L234.723 144.132L238.081 140.833L235.792 138.15C236.163 137.486 236.457 136.782 236.669 136.053L240.249 135.705ZM227.23 138.806C226.139 138.808 225.072 138.491 224.164 137.895C223.256 137.3 222.547 136.452 222.128 135.459C221.708 134.467 221.597 133.374 221.808 132.319C222.019 131.264 222.542 130.295 223.313 129.533C224.083 128.772 225.065 128.252 226.134 128.041C227.204 127.829 228.313 127.935 229.322 128.344C230.331 128.754 231.193 129.449 231.801 130.342C232.409 131.235 232.734 132.285 232.736 133.36C232.739 134.073 232.599 134.779 232.324 135.439C232.049 136.098 231.644 136.698 231.134 137.203C230.623 137.708 230.016 138.108 229.348 138.382C228.68 138.655 227.964 138.796 227.24 138.796L227.23 138.806Z" fill="#4461F2"/>
<path d="M255.931 146.13V142.811L253.4 142.592C253.253 142.072 253.043 141.572 252.774 141.101L254.408 139.193L252.028 136.848L250.082 138.448C249.603 138.188 249.095 137.981 248.569 137.832L248.357 135.348H244.979L244.767 137.832C244.238 137.981 243.727 138.188 243.245 138.448L241.308 136.848L238.928 139.193L240.552 141.101C240.287 141.572 240.08 142.073 239.937 142.592L237.406 142.811V146.13L239.937 146.348C240.08 146.868 240.287 147.368 240.552 147.839L238.928 149.747L241.308 152.102L243.245 150.492C243.723 150.761 244.235 150.968 244.767 151.109L244.979 153.603H248.357L248.569 151.109C249.098 150.968 249.607 150.761 250.082 150.492L252.028 152.102L254.408 149.747L252.774 147.839C253.047 147.371 253.257 146.87 253.4 146.348L255.931 146.13ZM246.663 148.336C245.887 148.336 245.129 148.109 244.484 147.684C243.839 147.26 243.336 146.656 243.039 145.95C242.742 145.243 242.664 144.466 242.816 143.716C242.967 142.966 243.341 142.277 243.889 141.737C244.438 141.196 245.137 140.828 245.898 140.679C246.659 140.53 247.448 140.606 248.164 140.899C248.881 141.191 249.494 141.687 249.925 142.323C250.356 142.958 250.586 143.706 250.586 144.47C250.586 145.495 250.173 146.479 249.437 147.204C248.701 147.929 247.704 148.336 246.663 148.336Z" fill="#4461F2"/>
<path d="M239.433 153.871V151.536L237.628 151.377C237.524 151.006 237.375 150.649 237.184 150.314L238.344 148.962L236.649 147.283L235.268 148.425C234.927 148.245 234.569 148.099 234.199 147.988L234.037 146.219H231.637L231.486 147.988C231.111 148.094 230.749 148.241 230.407 148.425L229.025 147.283L227.331 148.962L228.491 150.314C228.304 150.651 228.155 151.007 228.047 151.377L226.252 151.536V153.891L228.047 154.05C228.155 154.42 228.304 154.776 228.491 155.113L227.331 156.505L229.025 158.184L230.407 157.041C230.751 157.222 231.113 157.368 231.486 157.478L231.637 159.247H234.037L234.199 157.478C234.569 157.368 234.927 157.222 235.268 157.041L236.649 158.184L238.344 156.505L237.184 155.153C237.375 154.818 237.524 154.461 237.628 154.09L239.433 153.871ZM232.837 155.441C232.285 155.441 231.745 155.28 231.285 154.977C230.826 154.675 230.468 154.245 230.257 153.742C230.045 153.239 229.99 152.686 230.098 152.152C230.205 151.618 230.471 151.127 230.862 150.742C231.253 150.357 231.751 150.095 232.292 149.989C232.834 149.883 233.396 149.937 233.906 150.145C234.417 150.354 234.853 150.707 235.16 151.159C235.467 151.612 235.631 152.144 235.631 152.689C235.628 153.417 235.333 154.115 234.809 154.629C234.285 155.143 233.577 155.431 232.837 155.431V155.441Z" fill="#4461F2"/>
<path d="M234.683 281.092L275.303 428.744H281.374L240.764 281.092H234.683Z" fill="#757575" stroke="#263238" stroke-linecap="round" stroke-linejoin="round"/>
<path d="M326.17 386.887H249.174V393.068H326.17V386.887Z" fill="#999999" stroke="#263238" stroke-linecap="round" stroke-linejoin="round"/>
<path d="M367.244 247.93L317.497 428.794H311.446L361.183 247.93C363.019 241.262 358.813 235.836 351.805 235.836H308.945C301.947 235.836 294.746 241.262 292.911 247.93L243.154 428.794H237.103L286.85 247.93C289.563 238.062 300.172 230.043 310.539 230.043H353.408C363.745 230.043 369.957 238.052 367.244 247.93Z" fill="#757575" stroke="#263238" stroke-linecap="round" stroke-linejoin="round"/>
<path d="M368.031 247.98L355.687 292.878C355.092 294.768 353.918 296.429 352.325 297.634C350.732 298.839 348.799 299.528 346.793 299.605H276.362C275.513 299.671 274.661 299.526 273.883 299.184C273.105 298.842 272.426 298.313 271.909 297.646C271.392 296.979 271.052 296.195 270.921 295.366C270.79 294.536 270.872 293.688 271.159 292.898L283.512 248C284.112 246.114 285.288 244.457 286.881 243.257C288.473 242.056 290.403 241.37 292.407 241.292H362.827C363.499 241.244 364.173 241.328 364.812 241.538C365.45 241.747 366.041 242.079 366.55 242.514C367.058 242.948 367.475 243.478 367.776 244.071C368.076 244.665 368.256 245.311 368.303 245.972C368.349 246.653 368.256 247.335 368.031 247.98Z" fill="#4461F2"/>
<mask id="mask2_1_360" style="mask-type:luminance" maskUnits="userSpaceOnUse" x="270" y="241" width="99" height="59">
<path d="M368.031 247.98L355.687 292.878C355.092 294.768 353.918 296.429 352.325 297.634C350.732 298.839 348.799 299.528 346.793 299.605H276.362C275.513 299.671 274.661 299.526 273.883 299.184C273.105 298.842 272.426 298.313 271.909 297.646C271.392 296.979 271.052 296.195 270.921 295.366C270.79 294.536 270.872 293.688 271.159 292.898L283.512 248C284.112 246.114 285.288 244.457 286.881 243.257C288.473 242.056 290.403 241.37 292.407 241.292H362.827C363.499 241.244 364.173 241.328 364.812 241.538C365.45 241.747 366.041 242.079 366.55 242.514C367.058 242.948 367.475 243.478 367.776 244.071C368.076 244.665 368.256 245.311 368.303 245.972C368.349 246.653 368.256 247.335 368.031 247.98Z" fill="white"/>
</mask>
<g mask="url(#mask2_1_360)">
<path opacity="0.2" d="M368.031 247.98L355.687 292.878C355.092 294.768 353.918 296.429 352.325 297.634C350.732 298.839 348.799 299.528 346.793 299.605H276.362C275.513 299.671 274.661 299.526 273.883 299.184C273.105 298.842 272.426 298.313 271.909 297.646C271.392 296.979 271.052 296.195 270.921 295.366C270.79 294.536 270.872 293.688 271.159 292.898L283.512 248C284.112 246.114 285.288 244.457 286.881 243.257C288.473 242.056 290.403 241.369 292.407 241.292H328.822C344.564 257.192 342.557 286.498 341.529 295.342C343.171 294.952 344.684 294.15 345.921 293.015C347.158 291.88 348.076 290.45 348.588 288.863L360.911 243.955C361.163 243.086 361.214 242.173 361.062 241.282H362.827C363.674 241.222 364.522 241.37 365.296 241.714C366.07 242.057 366.745 242.584 367.261 243.248C367.777 243.913 368.118 244.693 368.252 245.518C368.386 246.344 368.31 247.19 368.031 247.98Z" fill="black" fill-opacity="0.7"/>
</g>
<path d="M368.031 247.98L355.687 292.878C355.092 294.768 353.918 296.429 352.325 297.634C350.732 298.839 348.799 299.528 346.793 299.605H276.362C275.513 299.671 274.661 299.526 273.883 299.184C273.105 298.842 272.426 298.313 271.909 297.646C271.392 296.979 271.052 296.195 270.921 295.366C270.79 294.536 270.872 293.688 271.159 292.898L283.512 248C284.112 246.114 285.288 244.457 286.881 243.257C288.473 242.056 290.403 241.37 292.407 241.292H362.827C363.499 241.244 364.173 241.328 364.812 241.538C365.45 241.747 366.041 242.079 366.55 242.514C367.058 242.948 367.475 243.478 367.776 244.071C368.076 244.665 368.256 245.311 368.303 245.972C368.349 246.653 368.256 247.335 368.031 247.98Z" stroke="#263238" stroke-linecap="round" stroke-linejoin="round"/>
<path d="M326.624 345.03L349.657 428.744H355.727L332.705 345.03H326.624Z" fill="#757575" stroke="#263238" stroke-linecap="round" stroke-linejoin="round"/>
<path d="M332.725 335.381V343.569H242.045V335.381C242.045 333.783 242.689 332.252 243.835 331.122C244.981 329.993 246.535 329.358 248.156 329.358H326.603C327.407 329.356 328.204 329.51 328.947 329.811C329.69 330.113 330.365 330.556 330.934 331.116C331.503 331.675 331.954 332.34 332.261 333.072C332.569 333.804 332.726 334.589 332.725 335.381Z" fill="#4461F2"/>
<mask id="mask3_1_360" style="mask-type:luminance" maskUnits="userSpaceOnUse" x="242" y="329" width="91" height="15">
<path d="M332.725 335.381V343.569H242.045V335.381C242.045 333.783 242.689 332.252 243.835 331.122C244.981 329.993 246.535 329.358 248.156 329.358H326.603C327.407 329.356 328.204 329.51 328.947 329.811C329.69 330.113 330.365 330.556 330.934 331.116C331.503 331.675 331.954 332.34 332.261 333.072C332.569 333.804 332.726 334.589 332.725 335.381Z" fill="white"/>
</mask>
<g mask="url(#mask3_1_360)">
<path opacity="0.2" d="M332.513 333.84C329.578 337.239 324.314 340.697 315.258 343.609H242.045V335.381C242.045 333.783 242.689 332.252 243.835 331.122C244.981 329.993 246.535 329.358 248.156 329.358H326.603C327.952 329.36 329.262 329.8 330.331 330.61C331.399 331.421 332.166 332.556 332.513 333.84Z" fill="black" fill-opacity="0.7"/>
</g>
<path d="M332.725 335.381V343.569H242.045V335.381C242.045 333.783 242.689 332.252 243.835 331.122C244.981 329.993 246.535 329.358 248.156 329.358H326.603C327.407 329.356 328.204 329.51 328.947 329.811C329.69 330.113 330.365 330.556 330.934 331.116C331.503 331.675 331.954 332.34 332.261 333.072C332.569 333.804 332.726 334.589 332.725 335.381Z" stroke="#263238" stroke-linecap="round" stroke-linejoin="round"/>
<path d="M335.801 341.095H239.755C238.803 341.095 238.031 341.855 238.031 342.794V347.077C238.031 348.016 238.803 348.776 239.755 348.776H335.801C336.753 348.776 337.525 348.016 337.525 347.077V342.794C337.525 341.855 336.753 341.095 335.801 341.095Z" fill="#999999" stroke="#263238" stroke-linecap="round" stroke-linejoin="round"/>
<path d="M239.1 341.343C234.754 345.706 255.82 414.255 255.82 414.255C253.521 416.242 250.132 417.157 246.926 417.574C243.978 417.935 240.999 417.978 238.041 417.703C238.041 417.703 207.848 345.537 216.158 327.629C224.467 309.722 276.029 301.593 276.029 301.593L278.228 296.227L304.902 292.53L309.308 324.718C309.308 324.718 304.932 325.135 298.347 325.97C280.689 328.176 247.087 333.393 239.1 341.343Z" fill="#263238"/>
<mask id="mask4_1_360" style="mask-type:luminance" maskUnits="userSpaceOnUse" x="214" y="292" width="96" height="126">
<path d="M239.1 341.343C234.754 345.706 255.82 414.255 255.82 414.255C253.521 416.242 250.132 417.157 246.926 417.574C243.978 417.935 240.999 417.978 238.041 417.703C238.041 417.703 207.848 345.537 216.158 327.629C224.467 309.722 276.029 301.593 276.029 301.593L278.228 296.227L304.902 292.53L309.308 324.718C309.308 324.718 304.932 325.135 298.347 325.97C280.689 328.176 247.087 333.393 239.1 341.343Z" fill="white"/>
</mask>
<g mask="url(#mask4_1_360)">
<path opacity="0.3" d="M255.82 414.295C253.521 416.282 250.132 417.196 246.926 417.614C241.066 396.149 226.151 338.869 231.799 331.863C238.767 323.217 273.256 315.356 273.256 315.356C273.397 310.944 285.489 306.969 285.489 306.969L298.336 325.94C280.678 328.176 247.077 333.393 239.09 341.343C234.753 345.745 255.82 414.295 255.82 414.295Z" fill="black"/>
</g>
<path d="M239.1 341.343C234.754 345.706 255.82 414.255 255.82 414.255C253.521 416.242 250.132 417.157 246.926 417.574C243.978 417.935 240.999 417.978 238.041 417.703C238.041 417.703 207.848 345.537 216.158 327.629C224.467 309.722 276.029 301.593 276.029 301.593L278.228 296.227L304.902 292.53L309.308 324.718C309.308 324.718 304.932 325.135 298.347 325.97C280.689 328.176 247.087 333.393 239.1 341.343Z" stroke="#263238" stroke-linecap="round" stroke-linejoin="round"/>
<path d="M224.175 276.461C219.748 275.716 251.262 248.487 251.262 248.487L266.459 258.563C266.459 258.563 240.603 276.511 236.538 276.997C232.474 277.484 224.175 276.461 224.175 276.461Z" fill="white"/>
<mask id="mask5_1_360" style="mask-type:luminance" maskUnits="userSpaceOnUse" x="223" y="248" width="44" height="30">
<path d="M224.175 276.461C219.748 275.716 251.262 248.487 251.262 248.487L266.459 258.563C266.459 258.563 240.603 276.511 236.538 276.997C232.474 277.484 224.175 276.461 224.175 276.461Z" fill="white"/>
</mask>
<g mask="url(#mask5_1_360)">
<path opacity="0.2" d="M224.175 276.461C219.748 275.716 251.262 248.487 251.262 248.487L266.459 258.563C266.459 258.563 240.603 276.511 236.538 276.997C232.474 277.484 224.175 276.461 224.175 276.461Z" fill="black" fill-opacity="0.7"/>
</g>
<path d="M224.175 276.461C219.748 275.716 251.262 248.487 251.262 248.487L266.459 258.563C266.459 258.563 240.603 276.511 236.538 276.997C232.474 277.484 224.175 276.461 224.175 276.461Z" stroke="#263238" stroke-linecap="round" stroke-linejoin="round"/>
<path d="M229.711 265.013C229.711 265.013 236.317 266.633 238.344 267.994C240.371 269.355 239.786 274.275 239.786 274.275C239.786 274.275 230.982 271.83 229.711 265.013Z" fill="white" stroke="#263238" stroke-linecap="round" stroke-linejoin="round"/>
<path d="M225.496 252.541L237.779 275.755H239.231L227.563 251.398L225.496 252.541Z" fill="#263238"/>
<path d="M236.569 269.326C236.569 269.326 228.824 263.9 226.928 263.9C225.032 263.9 219.354 270.508 219.354 273.837C219.354 277.166 231.738 278.985 234.158 276.173C235.369 274.771 232.968 271.393 232.968 271.393C234.41 272.905 235.957 274.316 237.597 275.616C238.606 276.173 240.532 275.447 240.532 275.447C240.532 275.447 237.95 271.373 236.569 269.326Z" fill="white" stroke="#263238" stroke-linecap="round" stroke-linejoin="round"/>
<path d="M232.969 276.938C231.183 274.704 228.991 272.816 226.504 271.373" stroke="#263238" stroke-linecap="round" stroke-linejoin="round"/>
<path d="M232.969 271.373C232.969 271.373 230.286 269.067 228.481 268.561" stroke="#263238" stroke-linecap="round" stroke-linejoin="round"/>
<path d="M224.528 274.304C226.403 275.251 228.212 276.32 229.943 277.504" stroke="#263238" stroke-linecap="round" stroke-linejoin="round"/>
<path d="M261.135 236.581C257.171 239.304 239.372 257.341 239.372 257.341C239.372 257.341 247.712 266.692 255.023 268.044L274.84 258.563L261.135 236.581Z" fill="#4461F2" stroke="#263238" stroke-linecap="round" stroke-linejoin="round"/>
<path opacity="0.4" d="M261.135 236.581C257.171 239.304 239.372 257.341 239.372 257.341C239.372 257.341 247.712 266.692 255.023 268.044L274.84 258.563L261.135 236.581Z" fill="white" stroke="#263238" stroke-linecap="round" stroke-linejoin="round"/>
<path d="M251.564 407.02L259.965 428.794C259.965 428.794 261.356 434.388 236.024 432.62L222.067 431.447L251.564 407.02Z" fill="#4461F2"/>
<mask id="mask6_1_360" style="mask-type:luminance" maskUnits="userSpaceOnUse" x="222" y="407" width="38" height="26">
<path d="M251.564 407.02L259.965 428.794C259.965 428.794 261.356 434.388 236.024 432.62L222.067 431.447L251.564 407.02Z" fill="white"/>
</mask>
<g mask="url(#mask6_1_360)">
<path opacity="0.3" d="M251.564 407.02L259.965 428.794C259.965 428.794 261.356 434.388 236.024 432.62L222.067 431.447L251.564 407.02Z" fill="black"/>
</g>
<path d="M251.564 407.02L259.965 428.794C259.965 428.794 261.356 434.388 236.024 432.62L222.067 431.447L251.564 407.02Z" stroke="#263238" stroke-linecap="round" stroke-linejoin="round"/>
<path d="M248.378 417.435C248.378 417.435 250.173 425.892 248.378 432.182C248.378 432.182 221.644 436.306 215.663 434.736C209.683 433.166 206.053 430.225 205.871 428.774C205.871 428.774 206.083 424.739 212.073 423.557C218.064 422.374 229.973 421.569 234.683 414.911C239.392 408.253 248.378 417.435 248.378 417.435Z" fill="#4461F2" stroke="#263238" stroke-linecap="round" stroke-linejoin="round"/>
<path d="M283.653 295.352C292.195 283.348 331.464 297.797 331.464 297.797C331.464 297.797 335.205 326.695 319.564 334.407C303.923 342.118 281.374 341.701 275.283 347.952L250.495 420.078C250.495 420.078 241.591 423.745 228.642 417.972C228.642 417.972 244.384 363.504 249.003 344.165C253.571 325.026 283.149 312.037 283.149 312.037C281.625 310.263 280.47 308.21 279.751 305.995" fill="#263238"/>
<path d="M283.653 295.352C292.195 283.348 331.464 297.797 331.464 297.797C331.464 297.797 335.205 326.695 319.564 334.407C303.923 342.118 281.374 341.701 275.283 347.952L250.495 420.078C250.495 420.078 241.591 423.745 228.642 417.972C228.642 417.972 244.384 363.504 249.003 344.165C253.571 325.026 283.149 312.037 283.149 312.037C281.625 310.263 280.47 308.21 279.751 305.995" stroke="#263238" stroke-linecap="round" stroke-linejoin="round"/>
<path d="M323.407 322.979C322.153 324.073 320.837 325.095 319.464 326.039" stroke="white" stroke-linecap="round" stroke-linejoin="round"/>
<path d="M326.624 298.502C329.83 305.359 330.083 314.065 325.615 320.415" stroke="white" stroke-linecap="round" stroke-linejoin="round"/>
<path d="M317.679 299.605C317.679 299.605 316.862 304.892 319.252 306.989C321.642 309.086 328.973 310.149 328.973 310.149" stroke="white" stroke-linecap="round" stroke-linejoin="round"/>
<path d="M285.489 299.844C285.489 299.844 285.822 305.111 283.653 304.862C281.485 304.614 281.374 306.969 281.374 306.969" stroke="white" stroke-linecap="round" stroke-linejoin="round"/>
<path d="M261.659 240.636C261.328 239.308 261.153 237.948 261.135 236.581C261.135 236.581 273.236 226.525 288.817 226.584C307.372 226.644 318.717 232.398 323.255 240.388C330.456 253.028 331.464 297.797 331.464 297.797C331.464 297.797 284.904 304.872 278.228 296.197C277.068 294.686 277.956 284.023 277.956 284.023C277.956 284.023 272.742 270.548 271.643 260.094C270.111 258.013 268.687 255.857 267.377 253.634C265.719 250.898 264.282 248.037 263.081 245.078" fill="#4461F2"/>
<path d="M261.659 240.636C261.328 239.308 261.153 237.948 261.135 236.581C261.135 236.581 273.236 226.525 288.817 226.584C307.372 226.644 318.717 232.398 323.255 240.388C330.456 253.028 331.464 297.797 331.464 297.797C331.464 297.797 284.904 304.872 278.228 296.197C277.068 294.686 277.956 284.023 277.956 284.023C277.956 284.023 272.742 270.548 271.643 260.094C270.111 258.013 268.687 255.857 267.377 253.634C265.719 250.898 264.282 248.037 263.081 245.078" stroke="#263238" stroke-linecap="round" stroke-linejoin="round"/>
<g opacity="0.6">
<path d="M261.659 240.636C261.328 239.308 261.153 237.948 261.135 236.581C261.135 236.581 273.236 226.525 288.817 226.584C307.372 226.644 318.717 232.398 323.255 240.388C330.456 253.028 331.464 297.797 331.464 297.797C331.464 297.797 284.904 304.872 278.228 296.197C277.068 294.686 277.956 284.023 277.956 284.023C277.956 284.023 272.742 270.548 271.643 260.094C270.111 258.013 268.687 255.857 267.377 253.634C265.719 250.898 264.282 248.037 263.081 245.078" fill="white"/>
<path d="M261.659 240.636C261.328 239.308 261.153 237.948 261.135 236.581C261.135 236.581 273.236 226.525 288.817 226.584C307.372 226.644 318.717 232.398 323.255 240.388C330.456 253.028 331.464 297.797 331.464 297.797C331.464 297.797 284.904 304.872 278.228 296.197C277.068 294.686 277.956 284.023 277.956 284.023C277.956 284.023 272.742 270.548 271.643 260.094C270.111 258.013 268.687 255.857 267.377 253.634C265.719 250.898 264.282 248.037 263.081 245.078" stroke="#263238" stroke-linecap="round" stroke-linejoin="round"/>
</g>
<path d="M279.489 251.398C279.489 251.398 286.598 278.578 285.539 284.56C285.286 286.624 285.636 288.717 286.548 290.592C285.619 291.555 285.021 292.782 284.84 294.098C284.659 295.415 284.904 296.754 285.539 297.926" stroke="#263238" stroke-linecap="round" stroke-linejoin="round"/>
<path d="M298.347 273.887C297.077 273.839 295.843 273.455 294.777 272.774L292.669 263.671C296.851 264.046 301.066 263.754 305.154 262.807L307.413 272.744C306.142 273.093 304.853 273.369 303.55 273.569" stroke="#263238" stroke-linecap="round" stroke-linejoin="round"/>
<path d="M274.436 254.936C274.436 254.936 268.385 229.536 283.653 226.584C298.921 223.633 302.058 230.659 301.16 235.419C299.96 241.769 287.304 257.341 287.304 257.341L279.489 251.378L274.436 254.936Z" fill="#4461F2" stroke="#263238" stroke-linecap="round" stroke-linejoin="round"/>
<path opacity="0.4" d="M274.436 254.936C274.436 254.936 268.385 229.536 283.653 226.584C298.921 223.633 302.058 230.659 301.16 235.419C299.96 241.769 287.304 257.341 287.304 257.341L279.489 251.378L274.436 254.936Z" fill="white" stroke="#263238" stroke-linecap="round" stroke-linejoin="round"/>
<path d="M254.408 333.393C254.408 333.393 264.271 322.174 286.538 313.697C286.538 313.697 280.769 311.958 279.478 309.593" stroke="white" stroke-linecap="round" stroke-linejoin="round"/>
<path d="M242.811 367.727L233.796 399.985" stroke="white" stroke-linecap="round" stroke-linejoin="round"/>
<path d="M312.475 274.762C312.475 274.762 316.509 281.469 333.118 280.853C330.027 277.592 326.117 275.192 321.783 273.897C314.996 272.108 312.475 274.762 312.475 274.762Z" fill="#4461F2" stroke="#263238" stroke-linecap="round" stroke-linejoin="round"/>
<path d="M248.035 277.455C248.035 277.455 251.887 271.572 255.417 270.389C258.946 269.206 269.313 269.107 270.917 269.067C272.52 269.028 301.009 276.163 314.381 280.555L313.211 258.563L331.182 259.964C331.182 259.964 330.456 286.796 327.662 293.901C324.869 301.007 320.865 299.277 314.038 296.376C287.183 284.977 271.451 277.037 269.989 277.494C268.527 277.951 248.035 277.455 248.035 277.455Z" fill="white" stroke="#263238" stroke-linecap="round" stroke-linejoin="round"/>
<path d="M308.724 245.784C308.254 247.607 308.104 249.496 308.28 251.369C309.076 258.245 312.475 274.762 312.475 274.762C312.475 274.762 329.225 277.117 333.118 280.853C333.118 280.853 335.881 258.991 330.254 247.89C324.627 236.79 318.808 235.568 318.808 235.568C315.127 234.673 311.749 238.052 309.883 242.395" fill="#4461F2"/>
<path d="M308.724 245.784C308.254 247.607 308.104 249.496 308.28 251.369C309.076 258.245 312.475 274.762 312.475 274.762C312.475 274.762 329.225 277.117 333.118 280.853C333.118 280.853 335.881 258.991 330.254 247.89C324.627 236.79 318.808 235.568 318.808 235.568C315.127 234.673 311.749 238.052 309.883 242.395" stroke="#263238" stroke-linecap="round" stroke-linejoin="round"/>
<g opacity="0.4">
<path d="M308.724 245.784C308.254 247.607 308.104 249.496 308.28 251.369C309.076 258.245 312.475 274.762 312.475 274.762C312.475 274.762 329.225 277.117 333.118 280.853C333.118 280.853 335.881 258.991 330.254 247.89C324.627 236.79 318.808 235.568 318.808 235.568C315.127 234.673 311.749 238.052 309.883 242.395" fill="white"/>
<path d="M308.724 245.784C308.254 247.607 308.104 249.496 308.28 251.369C309.076 258.245 312.475 274.762 312.475 274.762C312.475 274.762 329.225 277.117 333.118 280.853C333.118 280.853 335.881 258.991 330.254 247.89C324.627 236.79 318.808 235.568 318.808 235.568C315.127 234.673 311.749 238.052 309.883 242.395" stroke="#263238" stroke-linecap="round" stroke-linejoin="round"/>
</g>
<path d="M259.511 254.29C262.019 256.312 264.944 257.77 268.083 258.563" stroke="#263238" stroke-linecap="round" stroke-linejoin="round"/>
<path d="M312.475 254.29C312.475 254.29 318.526 265.559 326.17 268.044" stroke="#263238" stroke-linecap="round" stroke-linejoin="round"/>
<path d="M273.266 341.095C273.266 341.095 274.386 341.929 274.84 344.941" stroke="white" stroke-linecap="round" stroke-linejoin="round"/>
<path d="M269.122 344.941C270.096 345.045 271.038 345.348 271.887 345.83C272.736 346.313 273.473 346.964 274.053 347.743" stroke="white" stroke-linecap="round" stroke-linejoin="round"/>
<path d="M235.762 333.393C235.762 333.393 238.989 335.003 238.293 339.564" stroke="white" stroke-linecap="round" stroke-linejoin="round"/>
<path d="M232.364 337.269C232.364 337.269 236.77 339.843 237.083 342.148" stroke="white" stroke-linecap="round" stroke-linejoin="round"/>
<path d="M283.442 309.463C283.442 309.463 293.254 310.816 295.452 309.463" stroke="white" stroke-linecap="round" stroke-linejoin="round"/>
<path d="M279.488 250.305C278.641 247.938 278.298 245.425 278.48 242.922C278.52 242.072 278.611 241.226 278.752 240.388L277.048 237.724L274.86 234.296L277.391 224.358C277.391 224.358 293.526 227.419 294.736 231.851C295.946 236.283 279.488 250.305 279.488 250.305Z" fill="white"/>
<mask id="mask7_1_360" style="mask-type:luminance" maskUnits="userSpaceOnUse" x="274" y="224" width="21" height="27">
<path d="M279.488 250.305C278.641 247.938 278.298 245.425 278.48 242.922C278.52 242.072 278.611 241.226 278.752 240.388L277.048 237.724L274.86 234.296L277.391 224.358C277.391 224.358 293.526 227.419 294.736 231.851C295.946 236.283 279.488 250.305 279.488 250.305Z" fill="white"/>
</mask>
<g mask="url(#mask7_1_360)">
<path opacity="0.2" d="M278.46 242.961C278.5 242.112 278.591 241.266 278.732 240.427L277.028 237.764C280.1 237.296 282.897 235.75 284.904 233.411C284.989 235.469 284.411 237.501 283.254 239.216C282.096 240.931 280.418 242.242 278.46 242.961Z" fill="black" fill-opacity="0.7"/>
</g>
<path d="M279.488 250.305C278.641 247.938 278.298 245.425 278.48 242.922C278.52 242.072 278.611 241.226 278.752 240.388L277.048 237.724L274.86 234.296L277.391 224.358C277.391 224.358 293.526 227.419 294.736 231.851C295.946 236.283 279.488 250.305 279.488 250.305Z" stroke="#263238" stroke-linecap="round" stroke-linejoin="round"/>
<path d="M289.613 225.193C294.656 212.274 291.308 190.282 267.105 194.496C252.906 196.98 251.191 213.894 255.931 221.407C260.671 228.92 255.639 229.158 262.768 234.723C265.663 236.979 267.992 240.805 271.441 241.053C275.545 241.332 280.799 237.506 284.722 233.372" fill="white"/>
<path d="M289.613 225.193C294.656 212.274 291.308 190.282 267.105 194.496C252.906 196.98 251.191 213.894 255.931 221.407C260.671 228.92 255.639 229.158 262.768 234.723C265.663 236.979 267.992 240.805 271.441 241.053C275.545 241.332 280.799 237.506 284.722 233.372" stroke="#263238" stroke-linecap="round" stroke-linejoin="round"/>
<path d="M265.763 221.407C265.763 221.407 269.333 218.207 273.579 219.529" stroke="#263238" stroke-linecap="round" stroke-linejoin="round"/>
<path d="M259.077 221.407C258.598 220.577 257.932 219.867 257.129 219.333C256.326 218.798 255.409 218.454 254.448 218.326" stroke="#263238" stroke-linecap="round" stroke-linejoin="round"/>
<path d="M261.437 226.068C261.437 226.068 260.923 228.641 260.247 231.245C259.572 233.849 264.483 232.428 264.281 232.03" fill="white"/>
<path d="M261.437 226.068C261.437 226.068 260.923 228.641 260.247 231.245C259.572 233.849 264.483 232.428 264.281 232.03" stroke="#263238" stroke-linecap="round" stroke-linejoin="round"/>
<path d="M266.812 235.28C268.895 234.692 270.747 233.497 272.127 231.851" stroke="#263238" stroke-linecap="round" stroke-linejoin="round"/>
<path d="M270.735 224.676C270.807 224.801 270.853 224.939 270.87 225.082C270.888 225.225 270.877 225.37 270.837 225.508C270.798 225.647 270.731 225.776 270.641 225.889C270.551 226.002 270.439 226.097 270.312 226.167C270.053 226.306 269.749 226.339 269.466 226.259C269.183 226.179 268.943 225.993 268.799 225.74C268.707 225.586 268.658 225.411 268.658 225.233C268.586 225.108 268.54 224.97 268.523 224.827C268.505 224.684 268.516 224.539 268.556 224.401C268.595 224.262 268.662 224.133 268.752 224.02C268.842 223.907 268.954 223.812 269.081 223.742C269.34 223.603 269.643 223.57 269.927 223.65C270.21 223.73 270.45 223.916 270.594 224.169C270.686 224.323 270.735 224.498 270.735 224.676Z" fill="#263238"/>
<path d="M259.965 224.458C260.167 225.173 260.025 225.849 259.642 225.948C259.259 226.048 258.785 225.551 258.634 224.825C258.482 224.1 258.583 223.434 258.966 223.335C259.35 223.235 259.743 223.732 259.965 224.458Z" fill="#263238"/>
<path d="M274.688 208.1C274.688 208.1 270.937 217.77 261.659 217.551C261.659 217.551 264.876 215.136 265.763 212.831C265.763 212.831 258.624 219.787 251.494 216.249C244.364 212.711 247.863 196.255 258.805 189.756C269.747 183.257 280.941 184.996 284.732 191.207C284.732 191.207 292.397 190.511 295.775 201.611C298.8 211.549 293.96 226.614 289.23 226.783C281.899 227.051 280.426 219.211 280.426 219.211C277.399 216.177 275.396 212.297 274.688 208.1Z" fill="#263238" stroke="#263238" stroke-linecap="round" stroke-linejoin="round"/>
<path d="M282.726 225.243C282.726 225.243 282.494 216.12 287.768 217.223C293.042 218.326 289.22 228.87 285.257 228.761" fill="white"/>
<path d="M282.726 225.243C282.726 225.243 282.494 216.12 287.768 217.223C293.042 218.326 289.22 228.87 285.257 228.761" stroke="#263238" stroke-linecap="round" stroke-linejoin="round"/>
<path d="M266.439 276.461H185.128C184.22 276.461 183.484 277.186 183.484 278.081V280.873C183.484 281.768 184.22 282.493 185.128 282.493H266.439C267.347 282.493 268.083 281.768 268.083 280.873V278.081C268.083 277.186 267.347 276.461 266.439 276.461Z" fill="#4461F2" stroke="#263238" stroke-linecap="round" stroke-linejoin="round"/>
<path d="M65.1217 397.848H30.8242L34.4143 428.744H61.5316L65.1217 397.848Z" fill="#263238" stroke="#263238" stroke-linecap="round" stroke-linejoin="round"/>
<path d="M69.1857 376.343C69.1857 376.343 54.2102 377.506 53.585 388.397C53.585 388.397 68.7521 395.274 69.1857 376.343Z" fill="#4461F2" stroke="#263238" stroke-linecap="round" stroke-linejoin="round"/>
<path d="M39.5573 379.046C39.5573 379.046 31.1872 367.896 17.6638 373.61C17.6638 373.61 25.923 387.056 39.5573 379.046Z" fill="#4461F2" stroke="#263238" stroke-linecap="round" stroke-linejoin="round"/>
<path d="M18.8136 343.847C18.8136 343.847 16.4034 365.293 36.2195 359.39C36.2195 359.39 29.9267 343.619 18.8136 343.847Z" fill="#4461F2" stroke="#263238" stroke-linecap="round" stroke-linejoin="round"/>
<path d="M43.1475 331.902C43.1475 331.902 27.4761 340.23 39.0027 352.871C38.9926 352.871 49.9747 343.837 43.1475 331.902Z" fill="#4461F2" stroke="#263238" stroke-linecap="round" stroke-linejoin="round"/>
<path d="M62.419 351.072C62.419 351.072 45.3761 349.373 45.3761 364.915C45.3761 364.915 62.419 365.581 62.419 351.072Z" fill="#4461F2" stroke="#263238" stroke-linecap="round" stroke-linejoin="round"/>
<path d="M46.3543 410.578C46.3543 410.578 54.1194 394.519 46.6669 378.162C39.2144 361.805 36.6832 348.021 40.6162 338.312" stroke="#263238" stroke-linecap="round" stroke-linejoin="round"/>
<path d="M56.8221 355.256C56.8221 355.256 46.6065 359.231 43.1475 369.615" stroke="#263238" stroke-linecap="round" stroke-linejoin="round"/>
<path d="M24.1986 352.423C24.1986 352.423 30.0981 360.374 40.0918 359.489" stroke="#263238" stroke-linecap="round" stroke-linejoin="round"/>
<path d="M24.1986 375.896C24.1986 375.896 40.5355 380.527 47.03 379.016" stroke="#263238" stroke-linecap="round" stroke-linejoin="round"/>
<path d="M64.3251 381.242C64.3251 381.242 57.0138 389.192 49.6722 389.024" stroke="#263238" stroke-linecap="round" stroke-linejoin="round"/>
<path d="M66.5941 397.162H29.3519V401.525H66.5941V397.162Z" fill="#263238" stroke="#263238" stroke-linecap="round" stroke-linejoin="round"/>
<path d="M336.849 369.168C328.143 374.773 320.837 382.247 315.48 391.031C306.596 405.639 299.557 426.19 310.488 428.794L320.886 428.406L340.893 421.639L338.796 417.664C338.796 417.664 321.279 426.806 318.284 426.806C315.289 426.806 311.386 427.541 309.742 426.359C308.098 425.176 315.5 398.613 331.343 389.759C347.186 380.905 336.849 369.168 336.849 369.168Z" fill="#4461F2"/>
<mask id="mask8_1_360" style="mask-type:luminance" maskUnits="userSpaceOnUse" x="304" y="369" width="37" height="60">
<path d="M336.849 369.168C328.143 374.773 320.837 382.247 315.48 391.031C306.596 405.639 299.557 426.19 310.488 428.794L320.886 428.406L340.893 421.639L338.796 417.664C338.796 417.664 321.279 426.806 318.284 426.806C315.289 426.806 311.386 427.541 309.742 426.359C308.098 425.176 315.5 398.613 331.343 389.759C347.186 380.905 336.849 369.168 336.849 369.168Z" fill="white"/>
</mask>
<g mask="url(#mask8_1_360)">
<path opacity="0.5" d="M336.849 369.168C328.143 374.773 320.837 382.247 315.48 391.031C306.596 405.639 299.557 426.19 310.488 428.794L320.886 428.406L340.893 421.639L338.796 417.664C338.796 417.664 321.279 426.806 318.284 426.806C315.289 426.806 311.386 427.541 309.742 426.359C308.098 425.176 315.5 398.613 331.343 389.759C347.186 380.905 336.849 369.168 336.849 369.168Z" fill="black" fill-opacity="0.7"/>
</g>
<path d="M336.849 369.168C328.143 374.773 320.837 382.247 315.48 391.031C306.596 405.639 299.557 426.19 310.488 428.794L320.886 428.406L340.893 421.639L338.796 417.664C338.796 417.664 321.279 426.806 318.284 426.806C315.289 426.806 311.386 427.541 309.742 426.359C308.098 425.176 315.5 398.613 331.343 389.759C347.186 380.905 336.849 369.168 336.849 369.168Z" stroke="#263238" stroke-linecap="round" stroke-linejoin="round"/>
<path d="M348.235 359.588C348.235 359.588 348.235 355.305 354.82 354.719C361.405 354.133 362.343 360.383 362.343 360.383H360.074C360.074 360.383 360.124 356.637 355.284 356.349C350.443 356.061 350.625 360.383 350.625 360.383L348.235 359.588Z" fill="#4461F2" stroke="#263238" stroke-linecap="round" stroke-linejoin="round"/>
<path d="M338.493 428.794C324.566 428.794 327.208 367.25 328.812 364.2C330.415 361.149 370.824 359.628 374.807 360.92C378.791 362.212 394.765 423.527 385.951 428.426L338.493 428.794Z" fill="#4461F2"/>
<mask id="mask9_1_360" style="mask-type:luminance" maskUnits="userSpaceOnUse" x="327" y="360" width="62" height="69">
<path d="M338.493 428.794C324.566 428.794 327.208 367.25 328.812 364.2C330.415 361.149 370.824 359.628 374.807 360.92C378.791 362.212 394.765 423.527 385.951 428.426L338.493 428.794Z" fill="white"/>
</mask>
<g mask="url(#mask9_1_360)">
<path opacity="0.2" d="M338.493 428.794C324.566 428.794 327.208 367.25 328.812 364.2C330.415 361.149 370.824 359.628 374.807 360.92C378.791 362.212 394.765 423.527 385.951 428.426L338.493 428.794Z" fill="black" fill-opacity="0.7"/>
</g>
<path d="M338.493 428.794C324.566 428.794 327.208 367.25 328.812 364.2C330.415 361.149 370.824 359.628 374.807 360.92C378.791 362.212 394.765 423.527 385.951 428.426L338.493 428.794Z" stroke="#263238" stroke-linecap="round" stroke-linejoin="round"/>
<path d="M328.812 364.13C333.854 365.193 336.759 385.337 343.545 390.464C350.332 395.592 382.331 394.489 385.951 390.464C389.571 386.44 382.492 363.842 377.349 360.384C372.206 356.925 368.545 360.284 354.074 358.704C332.624 356.349 328.812 364.13 328.812 364.13Z" fill="#4461F2" stroke="#263238" stroke-linecap="round" stroke-linejoin="round"/>
<path d="M365.54 375.707L371.469 380.477C371.55 380.545 371.617 380.628 371.665 380.721C371.714 380.814 371.743 380.916 371.752 381.02C371.76 381.124 371.747 381.229 371.715 381.329C371.682 381.428 371.629 381.521 371.56 381.6L366.942 386.509C366.794 386.654 366.595 386.735 366.387 386.735C366.179 386.735 365.98 386.654 365.832 386.509L359.933 381.093C359.789 380.947 359.708 380.751 359.708 380.547C359.708 380.343 359.789 380.147 359.933 380L364.501 375.816C364.631 375.676 364.808 375.588 364.999 375.567C365.191 375.547 365.383 375.597 365.54 375.707Z" fill="#4461F2"/>
<mask id="mask10_1_360" style="mask-type:luminance" maskUnits="userSpaceOnUse" x="359" y="375" width="13" height="12">
<path d="M365.54 375.707L371.469 380.477C371.55 380.545 371.617 380.628 371.665 380.721C371.714 380.814 371.743 380.916 371.752 381.02C371.76 381.124 371.747 381.229 371.715 381.329C371.682 381.428 371.629 381.521 371.56 381.6L366.942 386.509C366.794 386.654 366.595 386.735 366.387 386.735C366.179 386.735 365.98 386.654 365.832 386.509L359.933 381.093C359.789 380.947 359.708 380.751 359.708 380.547C359.708 380.343 359.789 380.147 359.933 380L364.501 375.816C364.631 375.676 364.808 375.588 364.999 375.567C365.191 375.547 365.383 375.597 365.54 375.707Z" fill="white"/>
</mask>
<g mask="url(#mask10_1_360)">
<path opacity="0.2" d="M365.54 375.707L371.469 380.477C371.55 380.545 371.617 380.628 371.665 380.721C371.714 380.814 371.743 380.916 371.752 381.02C371.76 381.124 371.747 381.229 371.715 381.329C371.682 381.428 371.629 381.521 371.56 381.6L366.942 386.509C366.794 386.654 366.595 386.735 366.387 386.735C366.179 386.735 365.98 386.654 365.832 386.509L359.933 381.093C359.789 380.947 359.708 380.751 359.708 380.547C359.708 380.343 359.789 380.147 359.933 380L364.501 375.816C364.631 375.676 364.808 375.588 364.999 375.567C365.191 375.547 365.383 375.597 365.54 375.707Z" fill="black" fill-opacity="0.7"/>
</g>
<path d="M365.54 375.707L371.469 380.477C371.55 380.545 371.617 380.628 371.665 380.721C371.714 380.814 371.743 380.916 371.752 381.02C371.76 381.124 371.747 381.229 371.715 381.329C371.682 381.428 371.629 381.521 371.56 381.6L366.942 386.509C366.794 386.654 366.595 386.735 366.387 386.735C366.179 386.735 365.98 386.654 365.832 386.509L359.933 381.093C359.789 380.947 359.708 380.751 359.708 380.547C359.708 380.343 359.789 380.147 359.933 380L364.501 375.816C364.631 375.676 364.808 375.588 364.999 375.567C365.191 375.547 365.383 375.597 365.54 375.707Z" stroke="#263238" stroke-linecap="round" stroke-linejoin="round"/>
<path d="M345.986 400.76C345.986 400.76 372.791 402.936 385.951 399.577C387.712 400.943 389.021 402.793 389.713 404.894C390.913 408.432 393.414 420.535 385.951 423.636C378.488 426.736 351.664 426.14 348.084 422.642C344.504 419.144 345.986 400.76 345.986 400.76Z" fill="#4461F2"/>
<mask id="mask11_1_360" style="mask-type:luminance" maskUnits="userSpaceOnUse" x="345" y="399" width="47" height="27">
<path d="M345.986 400.76C345.986 400.76 372.791 402.936 385.951 399.577C387.712 400.943 389.021 402.793 389.713 404.894C390.913 408.432 393.414 420.535 385.951 423.636C378.488 426.736 351.664 426.14 348.084 422.642C344.504 419.144 345.986 400.76 345.986 400.76Z" fill="white"/>
</mask>
<g mask="url(#mask11_1_360)">
<path opacity="0.4" d="M345.986 400.76C345.986 400.76 372.791 402.936 385.951 399.577C387.712 400.943 389.021 402.793 389.713 404.894C390.913 408.432 393.414 420.535 385.951 423.636C378.488 426.736 351.664 426.14 348.084 422.642C344.504 419.144 345.986 400.76 345.986 400.76Z" fill="black" fill-opacity="0.7"/>
</g>
<path d="M345.986 400.76C345.986 400.76 372.791 402.936 385.951 399.577C387.712 400.943 389.021 402.793 389.713 404.894C390.913 408.432 393.414 420.535 385.951 423.636C378.488 426.736 351.664 426.14 348.084 422.642C344.504 419.144 345.986 400.76 345.986 400.76Z" stroke="#263238" stroke-linecap="round" stroke-linejoin="round"/>
<path d="M345.986 400.76C345.986 400.76 349.132 409.117 350.776 410.399C352.42 411.681 387.242 411.681 391.114 408.581C394.987 405.48 389.682 399.875 385.961 399.577C385.951 399.577 361.556 402.38 345.986 400.76Z" fill="#4461F2" stroke="#263238" stroke-linecap="round" stroke-linejoin="round"/>
<path d="M334.752 398.981C334.752 398.981 335.649 416.541 337.444 420.526C336.112 421.211 334.631 421.569 333.128 421.569C331.625 421.569 330.144 421.211 328.812 420.526C324.274 418.16 325.02 403.035 325.918 403.075C326.815 403.115 334.752 398.981 334.752 398.981Z" fill="#4461F2"/>
<mask id="mask12_1_360" style="mask-type:luminance" maskUnits="userSpaceOnUse" x="325" y="398" width="13" height="24">
<path d="M334.752 398.981C334.752 398.981 335.649 416.541 337.444 420.526C336.112 421.211 334.631 421.569 333.128 421.569C331.625 421.569 330.144 421.211 328.812 420.526C324.274 418.16 325.02 403.035 325.918 403.075C326.815 403.115 334.752 398.981 334.752 398.981Z" fill="white"/>
</mask>
<g mask="url(#mask12_1_360)">
<path opacity="0.4" d="M334.752 398.981C334.752 398.981 335.649 416.541 337.444 420.526C336.112 421.211 334.631 421.569 333.128 421.569C331.625 421.569 330.144 421.211 328.812 420.526C324.274 418.16 325.02 403.035 325.918 403.075C326.815 403.115 334.752 398.981 334.752 398.981Z" fill="black" fill-opacity="0.7"/>
</g>
<path d="M334.752 398.981C334.752 398.981 335.649 416.541 337.444 420.526C336.112 421.211 334.631 421.569 333.128 421.569C331.625 421.569 330.144 421.211 328.812 420.526C324.274 418.16 325.02 403.035 325.918 403.075C326.815 403.115 334.752 398.981 334.752 398.981Z" stroke="#263238" stroke-linecap="round" stroke-linejoin="round"/>
<path d="M334.752 398.981L328.005 400.313C328.005 400.313 321.571 405.182 324.415 406.802C327.259 408.422 334.59 404.447 334.752 398.981Z" fill="#4461F2" stroke="#263238" stroke-linecap="round" stroke-linejoin="round"/>
</svg>
