<svg width="40" height="40" viewBox="0 0 40 40" fill="none" xmlns="http://www.w3.org/2000/svg">
<path d="M34 11.5391H24V7.125C24 6.43359 23.4414 5.875 22.75 5.875H6.8125V4.3125C6.8125 4.14062 6.67188 4 6.5 4H4.3125C4.14062 4 4 4.14062 4 4.3125V34.9375C4 35.1094 4.14062 35.25 4.3125 35.25H6.5C6.67188 35.25 6.8125 35.1094 6.8125 34.9375V24.625H16.5V29.0391C16.5 29.7305 17.0586 30.2891 17.75 30.2891H34C34.6914 30.2891 35.25 29.7305 35.25 29.0391V12.7891C35.25 12.0977 34.6914 11.5391 34 11.5391Z" fill="#4461F2"/>
</svg>
